<?xml version="1.0" encoding="UTF-8"?>
<svg id="Camada_2" data-name="Camada 2" xmlns="http://www.w3.org/2000/svg" viewBox="0 0 831.8 315.85">
  <defs>
    <style>
      .cls-1 {
        fill: #fff;
      }
    </style>
  </defs>
  <g id="Layer_1" data-name="Layer 1">
    <g>
      <path class="cls-1" d="M60.93,167.83v52.56l45.5,26.3,45.55-26.3v-52.15l-45.87-26.53-45.18,26.12ZM117.44,186.35h7.14v.41c.23-.09.45-.18.73-.23,1.05-.27,2.09-.41,3.05-.41,1.96,0,3.64.41,5.05,1.23,1.46.82,2.59,2,3.37,3.5.77,1.46,1.14,3.14,1.14,5.05v12.97h-7.1v-12.97c0-1.05-.23-1.55-.41-1.82-.27-.36-.59-.59-.96-.68-.5-.18-1-.23-1.46-.23-.41,0-.96.09-1.55.23-.55.14-1,.41-1.37.82-.36.32-.5.91-.5,1.68v12.97h-7.14v-22.52ZM115.67,208.88h-7.14v-17.66l-5.14,12.88-.32.73h-6.1l-.27-.73-5.23-12.88v17.66h-7.14v-30.62h9.78l.27.73,5.64,15.06,5.6-15.06.27-.73h9.78v30.62Z"/>
      <path class="cls-1" d="M202.85,132.25v-52.15l-45.5-26.3-45.55,26.3v52.15l45.55,26.3,45.5-26.3ZM163.13,98.62h7.1v.41c.23-.09.5-.14.73-.23,1.09-.27,2.09-.41,3.09-.41,1.91,0,3.64.41,5.05,1.23,1.41.86,2.55,2,3.32,3.5.77,1.46,1.18,3.14,1.18,5.05v12.97h-7.14v-12.97c0-1.05-.18-1.55-.36-1.77-.27-.36-.59-.59-1-.73-.45-.14-.96-.23-1.41-.23s-.96.09-1.59.23c-.5.14-.96.41-1.37.82-.32.32-.5.91-.5,1.68v12.97h-7.1v-22.52ZM140.01,115.64l.18-.32,12.15-17.97h-12.15v-6.83h21.34v5.46l-.18.32-12.29,18.11h12.7v6.73h-21.75v-5.51Z"/>
      <path class="cls-1" d="M214.32,189.75c.27-.27.5-.64.64-1.05.18-.41.27-.86.27-1.32,0-.55-.14-1-.41-1.37-.23-.32-.5-.45-.86-.45h-4.69v4.41h4.55c.14,0,.27-.05.5-.23Z"/>
      <path class="cls-1" d="M215.55,201.31c.27-.27.5-.64.68-1,.18-.41.27-.82.27-1.23,0-.59-.18-1.09-.46-1.5-.32-.41-.55-.46-.82-.46h-5.96v4.41h5.87s.18,0,.41-.23Z"/>
      <path class="cls-1" d="M162.67,220.39l45.55,26.3,45.5-26.3v-52.56l-45.18-26.12-45.87,26.53v52.15ZM202.03,178.25h11.92c1.68,0,3.23.46,4.5,1.32,1.27.82,2.28,1.96,2.96,3.37.68,1.37,1.05,2.87,1.05,4.46,0,.96-.18,1.96-.45,3-.23.73-.5,1.41-.86,2.05.73.73,1.27,1.59,1.73,2.55.59,1.27.86,2.64.86,4.1,0,1.18-.23,2.37-.64,3.55-.45,1.14-1.05,2.18-1.82,3.09-.77.91-1.68,1.68-2.73,2.23-1.05.59-2.23.91-3.41.91h-13.1v-30.62Z"/>
      <path class="cls-1" d="M831.8,303.44H314.65v-136.02h-.27c.05-.82.05-1.59.09-2.41.09-2.14.14-4.32.18-6.46v-.64c0-1.37-.05-2.68-.05-4.05v-.56c-.04-1.32-.09-2.68-.18-4v-.05C310.24,66.25,241.35,0,157.35,0S4.23,66.43.23,149.61c.18-2.59.36-5.14.64-7.69.14-1.32.27-2.64.45-3.96.36-2.59.77-5.19,1.23-7.78.5-2.55,1-5.1,1.59-7.64.55-2.32,1.14-4.64,1.77-6.92.05-.18.14-.41.18-.59.36-1.23.73-2.46,1.14-3.69.45-1.5.96-3,1.5-4.5.32-.91.64-1.87,1-2.78.36-1.09.82-2.18,1.23-3.28.41-1,.82-2,1.23-3,.09-.32.23-.59.36-.86,1-2.32,2.05-4.64,3.14-6.92,1.14-2.28,2.28-4.55,3.5-6.78,1-1.87,2.09-3.69,3.14-5.51.86-1.41,1.73-2.82,2.68-4.23.68-1.05,1.37-2.14,2.05-3.14.77-1.14,1.55-2.28,2.37-3.41.68-.91,1.32-1.82,2.05-2.73.77-1.05,1.5-2,2.32-3,.77-1,1.55-1.96,2.37-2.96.77-.96,1.59-1.91,2.41-2.87.82-.91,1.64-1.87,2.5-2.78.86-.96,1.73-1.87,2.59-2.78.86-.91,1.73-1.82,2.64-2.68.91-.91,1.77-1.77,2.68-2.64s1.87-1.73,2.78-2.55c.96-.86,1.87-1.68,2.82-2.5s1.91-1.64,2.91-2.46c.96-.77,1.91-1.55,2.91-2.37,1-.77,2-1.55,3-2.28.86-.64,1.77-1.27,2.64-1.91,1.14-.86,2.32-1.68,3.5-2.46,1.05-.73,2.14-1.41,3.18-2.09,1.09-.68,2.14-1.37,3.23-2,1.05-.64,2.14-1.27,3.23-1.91,4.41-2.5,8.92-4.82,13.56-6.92.82-.41,1.68-.77,2.55-1.14,1.82-.82,3.73-1.55,5.6-2.28,1.09-.46,2.18-.82,3.28-1.23,1.18-.45,2.41-.86,3.59-1.23,1.41-.5,2.87-.96,4.32-1.37.73-.23,1.5-.45,2.28-.68,1.77-.5,3.55-.96,5.32-1.41,1.96-.5,4-.96,6.01-1.37,10.19-2.09,20.79-3.19,31.62-3.19,1.77,0,3.5.05,5.28.09,2.28.09,4.55.18,6.78.36.14,0,.27.05.41.05,1,.05,2,.14,3,.27,3.41.32,6.78.77,10.1,1.32,1.5.23,3,.5,4.51.82,1.59.27,3.18.64,4.78,1,.5.09,1.05.23,1.55.32t.09.05c.23.05.41.09.59.14.68.18,1.37.36,2.09.55,3.23.82,6.42,1.77,9.6,2.78,1.41.46,2.82.96,4.19,1.46,3.14,1.09,6.19,2.32,9.19,3.64,1.37.55,2.73,1.18,4.05,1.82,2.87,1.32,5.73,2.78,8.51,4.28,1.14.59,2.23,1.23,3.32,1.87,1.09.59,2.18,1.27,3.28,1.91,2.14,1.27,4.28,2.64,6.37,4.1,1.05.68,2.09,1.41,3.09,2.14,1.05.73,2.05,1.46,3.05,2.23,1,.73,2,1.5,3,2.28,2,1.55,3.91,3.14,5.82,4.78.96.82,1.91,1.64,2.82,2.5,1.87,1.68,3.69,3.41,5.46,5.19.91.86,1.78,1.77,2.64,2.68,4.37,4.55,8.46,9.37,12.19,14.38.77,1,1.5,2,2.23,3.05.77,1,1.5,2.05,2.18,3.09.59.86,1.18,1.77,1.77,2.68,6.46,9.87,11.79,20.52,15.88,31.76.68,1.87,1.32,3.73,1.91,5.64.27.77.5,1.55.73,2.32.23.77.5,1.5.68,2.32,1.14,3.82,2.14,7.74,2.91,11.69.18.82.32,1.64.5,2.46.32,1.59.59,3.23.82,4.87,0,.09.05.18.05.27.18,1.23.36,2.41.5,3.64.18,1.27.36,2.59.5,3.91.09.96.18,1.96.27,2.91.05.5.09,1.05.14,1.55,0,.04,0,.07,0,.11,0-.03,0-.06,0-.09-.05-.5-.09-1.05-.14-1.55-.09-.96-.18-1.96-.27-2.91-.14-1.32-.32-2.64-.5-3.91-.14-1.23-.32-2.41-.5-3.64,0-.09-.05-.18-.05-.27-.23-1.64-.5-3.28-.82-4.87-.18-.82-.32-1.64-.5-2.46-.77-3.96-1.77-7.87-2.91-11.69-.18-.82-.46-1.55-.68-2.32s-.5-1.55-.73-2.32c-.59-1.91-1.23-3.78-1.91-5.64-4.1-11.24-9.42-21.89-15.88-31.76-.59-.91-1.18-1.82-1.77-2.68-.68-1.05-1.41-2.09-2.18-3.09-.73-1.05-1.46-2.05-2.23-3.05-3.73-5.01-7.83-9.83-12.19-14.38-.86-.91-1.73-1.82-2.64-2.68-1.77-1.77-3.59-3.5-5.46-5.19-.91-.86-1.87-1.68-2.82-2.5-1.91-1.64-3.87-3.23-5.82-4.78-1-.77-2-1.55-3-2.28-1-.77-2-1.5-3.05-2.23-1-.73-2.05-1.46-3.09-2.14-2.09-1.46-4.23-2.82-6.37-4.1-1.09-.64-2.18-1.32-3.28-1.91-1.09-.64-2.18-1.27-3.32-1.87-2.78-1.5-5.64-2.96-8.51-4.28-1.32-.64-2.69-1.27-4.05-1.82-3-1.32-6.05-2.55-9.19-3.64-1.36-.5-2.78-1-4.19-1.46-3.18-1-6.37-1.96-9.6-2.78-.73-.18-1.41-.36-2.09-.55-.18-.05-.36-.09-.59-.14t-.09-.05c-.5-.09-1.05-.23-1.55-.32-1.59-.36-3.18-.68-4.78-1-1.5-.32-3-.59-4.51-.82-3.32-.55-6.69-1-10.1-1.32-1-.14-2-.23-3-.27-.14,0-.27-.05-.41-.05-2.23-.18-4.5-.27-6.78-.36-1.73-.05-3.5-.09-5.28-.09-10.83,0-21.43,1.09-31.62,3.19-2,.41-4.05.86-6.01,1.37-1.77.45-3.55.91-5.32,1.41-.77.23-1.55.45-2.28.68-1.46.41-2.91.86-4.32,1.37-1.23.36-2.41.77-3.59,1.23-1.09.41-2.18.77-3.28,1.23-1.87.73-3.78,1.46-5.6,2.28-.86.36-1.73.73-2.55,1.14-4.64,2.09-9.19,4.41-13.56,6.92-1.09.64-2.18,1.27-3.23,1.91-1.09.64-2.14,1.32-3.23,2-1.05.68-2.14,1.37-3.18,2.09-1.18.77-2.37,1.59-3.5,2.46-.86.64-1.77,1.27-2.64,1.91-1,.73-2,1.5-3,2.28-1,.82-1.96,1.59-2.91,2.37-1,.82-1.96,1.64-2.91,2.46-.96.82-1.87,1.64-2.82,2.5-.91.82-1.87,1.68-2.78,2.55s-1.77,1.73-2.68,2.64c-.91.86-1.77,1.77-2.64,2.68-.86.91-1.73,1.82-2.59,2.78-.86.91-1.68,1.87-2.5,2.78-.82.96-1.64,1.91-2.41,2.87-.82,1-1.59,1.96-2.37,2.96-.82,1-1.55,1.96-2.32,3-.73.91-1.36,1.82-2.05,2.73-.82,1.14-1.59,2.28-2.37,3.41-.68,1-1.36,2.09-2.05,3.14-.96,1.41-1.82,2.82-2.68,4.23-1.05,1.82-2.14,3.64-3.14,5.51-1.23,2.23-2.37,4.5-3.5,6.78-1.09,2.28-2.14,4.6-3.14,6.92-.14.27-.27.55-.36.86-.41,1-.82,2-1.23,3-.41,1.09-.86,2.18-1.23,3.28-.36.91-.68,1.87-1,2.78-.55,1.5-1.05,3-1.5,4.5-.41,1.23-.77,2.46-1.14,3.69-.05.18-.14.41-.18.59-.64,2.28-1.23,4.6-1.77,6.92-.59,2.55-1.09,5.1-1.59,7.64-.46,2.59-.86,5.19-1.23,7.78-.18,1.32-.32,2.64-.45,3.96-.27,2.55-.45,5.1-.64,7.69-.09,1.41-.14,2.87-.18,4.28,0,1.37-.05,2.68-.05,4.05s.05,2.68.05,4.05c.05,1.41.09,2.87.18,4.28,4,83.13,72.94,149.57,157.12,149.57,6.64,0,13.24-.46,19.66-1.27h137.65v-.12h517.15v-11.02ZM314.43,149.84s0,.09,0,.13c0-.04,0-.07,0-.11v-.02ZM106.43,259.02l-1.14-.64-53.92-31.17-1.14-.64v-64.93l1.14-.68,49.73-28.71v-58.34l1.14-.64,53.97-31.17,1.14-.64,1.14.64,53.92,31.17,1.14.64v58.34l49.74,28.71,1.14.68v64.93l-1.14.64-1.14.64-52.78,30.53-1.14.64-1.14-.64-49.73-28.76-49.78,28.76-1.14.64Z"/>
    </g>
  </g>
</svg>