<?xml version="1.0" encoding="UTF-8"?>
<svg id="Camada_2" data-name="Camada 2" xmlns="http://www.w3.org/2000/svg" viewBox="0 0 831.8 314.65">
  <defs>
    <style>
      .cls-1 {
        fill: #fff;
      }
    </style>
  </defs>
  <g id="Layer_1" data-name="Layer 1">
    <g>
      <path class="cls-1" d="M831.8,303.62H314.65v-136.12h-.36c.27-3.37.36-6.78.36-10.19C314.65,70.58,244.08,0,157.35,0S0,70.58,0,157.3s66.25,152.94,149.3,157.12v.21h7.43c.21,0,.42.02.63.02.38,0,.76-.02,1.14-.02h9.01v.02h147.16v-.02h517.15v-11.02ZM90.1,241.39c-23.12-26.8-19.16-60.29-17.47-74.58,3.55-29.9,17.47-50.05,30.94-69.57,12.42-18.02,27.26-34.22,44.05-48.19l2.5-2.05,4.37-3.69,4.37,3.69,2.5,2.09c16.75,13.92,31.94,29.71,45.09,46.82,17.84,23.25,30.76,40.04,35.08,66.03l.09.68c.23,1.37.41,2.68.59,4,4.05,29.8-2.28,54.6-18.79,73.62-16.97,19.57-39.32,26.12-55.06,28.12-5.46.68-9.92.86-12.7.86-1.32,0-2.5-.05-3.41-.14-25.48-1-47.6-10.88-62.16-27.71Z"/>
      <path class="cls-1" d="M209.36,228.65c13.56-15.65,18.25-36.72,13.92-62.66-3.5-21.11-14.24-35.13-30.49-56.29-11.29-14.65-24.07-28.17-38.18-40.13-13.97,11.97-26.3,25.71-36.77,40.82-12.29,17.88-23.98,34.72-26.89,59.52-1.46,12.7-4.6,39.13,13.24,59.79,11.29,13.01,28.67,20.7,48.96,21.52,8.33.27,36.9-.36,56.2-22.57ZM209.5,195.16c.5-.32,1.91-1.27,3.09-.82,1.37.55,2.05,2.78,1.82,3.46-2.5,7.87-7.83,19.16-19.02,28.8-11.65,9.97-24.16,13.47-32.58,14.56-.09.05-.23.05-.36.05-1,0-1.91-.55-2.41-1.41-.23-.41-.32-.77-.32-1-.18-1.73,1.27-3.32,1.64-3.69,2.82-3.05,18.16-7.87,25.71-13.51,9.33-6.96,17.02-22.71,22.43-26.44ZM155.94,147.34h11.06v22.3h16.65v-22.3h11.06v53.42h-11.06v-20.79h-16.65v20.79h-11.06v-53.42ZM149.3,191.66c-1.64,2.96-3.73,5.23-6.37,6.96-2.73,1.77-5.69,2.64-9.06,2.64-.77,0-1.68,0-2.82-.09-1.14-.09-2.23-.32-3.32-.64-.32-.09-.68-.18-1-.27v15.15h-11.06v-53.47h11.06v1.23c2.14-1,4.32-1.5,6.55-1.5.32,0,.64.05.96.05,3.23.18,6.05,1.14,8.69,2.91,2.64,1.77,4.78,4.19,6.32,7.14,1.64,2.96,2.46,6.42,2.46,10.24,0,3.5-.77,6.64-2.41,9.65Z"/>
      <path class="cls-1" d="M133.14,172.41c-.23-.05-.5-.05-.77-.05-1.78,0-3.64.55-5.64,1.64v15.38c1.91.82,3.64,1.23,5.32,1.23.46,0,.86-.05,1.32-.09,2.14-.23,3.87-1.09,5.19-2.59,1.37-1.5,2-3.41,2-5.92,0-2.91-.68-5.23-2.09-6.87-1.36-1.59-3.09-2.5-5.32-2.73Z"/>
    </g>
  </g>
</svg>